<svg xmlns="http://www.w3.org/2000/svg" viewBox="0 0 68 68"><defs><style>.cls-1{fill:#e09f66;}</style></defs><title>balustrade-ico</title><g id="Warstwa_2" data-name="Warstwa 2"><g id="Warstwa_1-2" data-name="Warstwa 1"><path class="cls-1" d="M34,0A34,34,0,1,0,68,34,34,34,0,0,0,34,0ZM8.2,19.55H59.8v.61H8.2ZM59.8,48.45H8.2v-.86H9.54V46h6v1.6h1.15V46h6v1.6H23.9V46h6v1.6h1.15V46h6v1.6h1.15V46h6v1.6h1.15V46h6v1.6h1.15V46h6v1.6H59.8ZM10.2,39.89a59.18,59.18,0,0,0,1.34-8.14h1.9a59.16,59.16,0,0,0,1.34,8.14,2,2,0,0,1-1.53,2.84H11.66v0A2,2,0,0,1,10.2,39.89ZM11.12,43h2.76a5.47,5.47,0,0,0,1.27,2.67H9.89A5.19,5.19,0,0,0,11.12,43Zm6.26-3.11a59.18,59.18,0,0,0,1.34-8.14h1.9A59.16,59.16,0,0,0,22,39.89a2,2,0,0,1-1.53,2.84H18.84v0A2,2,0,0,1,17.38,39.89ZM18.31,43h2.76a5.47,5.47,0,0,0,1.27,2.67H17.08A5.19,5.19,0,0,0,18.31,43Zm6.26-3.11a59.2,59.2,0,0,0,1.34-8.14h1.9a59.16,59.16,0,0,0,1.34,8.14,2,2,0,0,1-1.53,2.84H26v0A2,2,0,0,1,24.57,39.89ZM25.49,43h2.76a5.47,5.47,0,0,0,1.27,2.67H24.26A5.19,5.19,0,0,0,25.49,43Zm6.26-3.11a59.2,59.2,0,0,0,1.34-8.14H35a59.18,59.18,0,0,0,1.34,8.14,2,2,0,0,1-1.53,2.84H33.21v0A2,2,0,0,1,31.75,39.89ZM32.67,43h2.76a5.47,5.47,0,0,0,1.27,2.67H31.45A5.19,5.19,0,0,0,32.67,43Zm6.26-3.11a59.2,59.2,0,0,0,1.34-8.14h1.9a59.18,59.18,0,0,0,1.34,8.14A2,2,0,0,1,42,42.73H40.39v0A2,2,0,0,1,38.94,39.89ZM39.86,43h2.76a5.47,5.47,0,0,0,1.27,2.67H38.63A5.19,5.19,0,0,0,39.86,43Zm6.26-3.11a59.2,59.2,0,0,0,1.34-8.14h1.9a59.18,59.18,0,0,0,1.34,8.14,2,2,0,0,1-1.53,2.84H47.58v0A2,2,0,0,1,46.12,39.89ZM47,43H49.8a5.47,5.47,0,0,0,1.27,2.67H45.81A5.19,5.19,0,0,0,47,43Zm6.26-3.11a59.18,59.18,0,0,0,1.34-8.14h1.9a59.18,59.18,0,0,0,1.34,8.14,2,2,0,0,1-1.53,2.84H54.76v0A2,2,0,0,1,53.3,39.89ZM54.23,43H57a5.47,5.47,0,0,0,1.27,2.67H53A5.19,5.19,0,0,0,54.23,43Zm4.2-19.53v1.28A1.35,1.35,0,0,0,57,26h-.6l.22,5.39h-2V26H54c-.05-1.07-1.38-1.13-1.38-1.13V23.46h-1.4v1.28A1.35,1.35,0,0,0,49.8,26h-.6l.22,5.39h-2V26h-.63c-.05-1.07-1.38-1.13-1.38-1.13V23.46h-1.4v1.28A1.35,1.35,0,0,0,42.62,26H42l.22,5.39h-2V26h-.63c-.05-1.07-1.38-1.13-1.38-1.13V23.46h-1.4v1.28A1.35,1.35,0,0,0,35.44,26h-.6l.22,5.39h-2V26h-.63c-.05-1.07-1.38-1.13-1.38-1.13V23.46h-1.4v1.28A1.35,1.35,0,0,0,28.25,26h-.6l.22,5.39h-2V26h-.63c-.05-1.07-1.38-1.13-1.38-1.13V23.46H22.5v1.28A1.35,1.35,0,0,0,21.07,26h-.6l.22,5.39h-2V26H18.1c-.05-1.07-1.38-1.13-1.38-1.13V23.46h-1.4v1.28A1.35,1.35,0,0,0,13.88,26h-.6l.22,5.39h-2V26h-.63c-.05-1.07-1.38-1.13-1.38-1.13V23.46H8.2V20.91H59.8v2.56Z"/></g></g></svg>