<svg xmlns="http://www.w3.org/2000/svg" viewBox="0 0 68 68"><defs><style>.cls-1{fill:#e09f66;}</style></defs><title>bower-ico</title><g id="Warstwa_2" data-name="Warstwa 2"><g id="Warstwa_1-2" data-name="Warstwa 1"><polygon class="cls-1" points="16.47 38.54 27.86 38.07 27.86 31.36 16.47 31.36 16.47 38.54"/><polygon class="cls-1" points="14.46 38.62 14.95 38.6 14.95 31.36 14.46 31.36 14.46 38.62"/><polygon class="cls-1" points="34.78 31.36 28.96 31.36 28.95 38.02 34.82 37.78 34.78 31.36"/><polygon class="cls-1" points="34.82 38.35 28.95 38.62 28.95 41.97 34.85 42.37 34.82 38.35"/><polygon class="cls-1" points="11.05 41.34 14.95 41.34 14.95 39.28 14.46 39.3 11.05 41.34"/><polygon class="cls-1" points="13.31 31.36 11.05 31.36 11.05 40.21 13.54 38.66 13.31 31.36"/><polygon class="cls-1" points="11.05 42.91 14.95 42.86 14.95 42.32 11.05 42.32 11.05 42.91"/><polygon class="cls-1" points="28.95 43.19 28.95 43.85 34.86 44.17 34.85 43.53 28.95 43.19"/><path class="cls-1" d="M34,0A34,34,0,1,0,68,34,34,34,0,0,0,34,0ZM63.61,29.47l-27.34.85L34.21,12.66ZM33.83,12.54l1.83,17.78H5.7ZM63.61,30.32,60,30.46V49.69l-1.34.3h0l-23,2.86-6.71-.61-1.08-.18V38.67l-11.39.54V50.6H15l-5-.26v-19H5.7v-.61h30v7l.55,0,16.38.65V30.74l-16.29.62v-.61l27.31-1Z"/><polygon class="cls-1" points="58.62 30.51 53.65 30.7 53.47 38.66 58.62 40.32 58.62 30.51"/><polygon class="cls-1" points="52.59 38.78 36.45 38.27 35.66 38.31 35.66 42.47 58.57 40.92 52.59 38.78"/><polygon class="cls-1" points="35.66 44.34 58.62 42.5 58.62 41.97 35.66 43.58 35.66 44.34"/></g></g></svg>