<svg xmlns="http://www.w3.org/2000/svg" viewBox="0 0 67.93 68"><defs><style>.cls-1{fill:#e09f66;}.cls-2{fill:#cc8656;}</style></defs><title>Zasób 3</title><g id="Warstwa_2" data-name="Warstwa 2"><g id="Warstwa_1-2" data-name="Warstwa 1"><path class="cls-1" d="M5.26,21.72H2.75a.7.7,0,0,0-.65.45A33.86,33.86,0,0,0,0,32.74a.7.7,0,0,0,.7.72H5.26a.69.69,0,0,0,.69-.69V22.41A.69.69,0,0,0,5.26,21.72Z"/><path class="cls-1" d="M5.26,35.46H.74a.7.7,0,0,0-.7.74,33.83,33.83,0,0,0,2,9.42.7.7,0,0,0,.65.45H5.26a.69.69,0,0,0,.69-.69V36.14A.69.69,0,0,0,5.26,35.46Z"/><rect class="cls-1" x="7.94" y="21.72" width="8.05" height="11.74" rx="0.69" ry="0.69"/><rect class="cls-1" x="7.94" y="35.46" width="8.05" height="10.61" rx="0.69" ry="0.69"/><path class="cls-1" d="M63,46.07h2.24a.73.73,0,0,0,.69-.48,33.83,33.83,0,0,0,2-9.36.73.73,0,0,0-.73-.78H63a.73.73,0,0,0-.73.73v9.16A.73.73,0,0,0,63,46.07Z"/><path class="cls-1" d="M63,33.46h4.2a.73.73,0,0,0,.73-.76A33.86,33.86,0,0,0,65.85,22.2a.73.73,0,0,0-.69-.47H63a.73.73,0,0,0-.73.73V32.73A.73.73,0,0,0,63,33.46Z"/><rect class="cls-1" x="52.23" y="21.72" width="8.05" height="11.74" rx="0.76" ry="0.76"/><rect class="cls-1" x="52.23" y="35.46" width="8.05" height="10.61" rx="0.73" ry="0.73"/><path class="cls-1" d="M25.92,53.44H42a1.73,1.73,0,0,0,1.73-1.73V16.29A1.73,1.73,0,0,0,42,14.55H25.92a1.73,1.73,0,0,0-1.73,1.73V51.71A1.73,1.73,0,0,0,25.92,53.44ZM41.73,33.9a1,1,0,1,1-1-1A1,1,0,0,1,41.73,33.9ZM28.81,18.77H39.13a.9.9,0,0,1,.9.9v7.19a.9.9,0,0,1-.9.9H28.81a.9.9,0,0,1-.9-.9V19.67A.9.9,0,0,1,28.81,18.77Z"/><path class="cls-2" d="M52.23,49h-3V18.77H64.36a34,34,0,0,0-60.79,0H18.94V49H3.46a34,34,0,0,0,61,0ZM46.71,12V56.4H21.23V11.6H46.71Z"/></g></g></svg>