<svg xmlns="http://www.w3.org/2000/svg" viewBox="0 0 68 68"><defs><style>.cls-1{fill:#e09f66;}</style></defs><title>doors-ico</title><g id="Warstwa_2" data-name="Warstwa 2"><g id="Warstwa_1-2" data-name="Warstwa 1"><path class="cls-1" d="M20.21,52.64h14V16.83h-14ZM27.31,21h5.27v6.15H27.31Zm0,7h5.27v6.15H27.31Zm0,7h5.27v6.15H27.31Zm0,7h5.27v6.15H27.31ZM21.45,21h5v6.15h-5Zm0,7h5v6.15h-5Zm0,7h5v6.15h-5Zm0,7h5v6.15h-5Z"/><path class="cls-1" d="M37.88,34h-2.4a.33.33,0,0,0,0,.67h2.4a.33.33,0,1,0,0-.67Z"/><path class="cls-1" d="M34,0A34,34,0,1,0,68,34,34,34,0,0,0,34,0ZM54.09,56.62H13.91V53.57h1V11.38H53.26v42.2h.82Z"/><polygon class="cls-1" points="15.94 53.07 19.21 53.07 19.21 15.82 49.2 15.82 49.2 53.07 52.27 53.07 52.27 12.38 15.94 12.38 15.94 53.07"/></g></g></svg>