<svg class="fontSizeMinuslus-ico" viewBox="0 0 27.51 12.98"><path class="fontSizeMinuslus-path" d="M7.73,9.81H3.19l-1,3H0L4.46,0h2l4.41,12.8H8.7ZM3.78,8H7.15L5.5,3H5.45Z"/><path d="M18,12.8q-.11-.36-.19-.7a5,5,0,0,1-.1-.69,3.66,3.66,0,0,1-1.15,1.12A3,3,0,0,1,15,13a3.16,3.16,0,0,1-2.28-.76,2.78,2.78,0,0,1-.8-2.1A2.48,2.48,0,0,1,13,8,5.26,5.26,0,0,1,16,7.2h1.66V6.36a1.55,1.55,0,0,0-.44-1.17A1.74,1.74,0,0,0,16,4.77a1.8,1.8,0,0,0-1.16.35,1.1,1.1,0,0,0-.43.9H12.35V6a2.36,2.36,0,0,1,1-2,4.26,4.26,0,0,1,2.78-.87A4.07,4.07,0,0,1,18.81,4a3,3,0,0,1,1,2.43v4.23a7.8,7.8,0,0,0,.08,1.13,6,6,0,0,0,.25,1.06Zm-2.61-1.53a2.67,2.67,0,0,0,1.45-.4,2,2,0,0,0,.86-.92V8.53H16A2.14,2.14,0,0,0,14.54,9,1.4,1.4,0,0,0,14,10.08a1.11,1.11,0,0,0,.36.87A1.48,1.48,0,0,0,15.39,11.27Z"/><path class="fontSizeMinuslus-path" d="M27.51,8.22H22.32V6.5h5.19Z"/></svg>