<svg class="service__icon" viewBox="0 0 68 67.96"><path d="M14.76,62c-.14-7.32-.08-14.63.47-22H12.65c.52,6.92.6,13.84.49,20.76C13.67,61.25,14.21,61.65,14.76,62Z"/><path d="M26.47,67.15a255.9,255.9,0,0,1,.34-27.07H24.23a253.5,253.5,0,0,1,.36,26.59Q25.52,66.94,26.47,67.15Z"/><path d="M32.29,68a260,260,0,0,1,.32-27.88H30a259.17,259.17,0,0,1,.32,27.72C31,67.87,31.63,67.92,32.29,68Z"/><path d="M67.85,37.08c.09-1,.15-2,.15-3.08A34,34,0,0,0,0,34c0,1,.05,2.06.15,3.08Z"/><path d="M3.22,48.46c.08-2.79.21-5.59.42-8.38H.55A33.75,33.75,0,0,0,3.22,48.46Z"/><path d="M8.91,56.94c0-5.62.11-11.24.53-16.86H6.85c.38,5,.53,10.05.54,15.08C7.88,55.77,8.38,56.37,8.91,56.94Z"/><path d="M20.62,65.26A246.8,246.8,0,0,1,21,40.08H18.44a243,243,0,0,1,.42,24.36C19.44,64.73,20,65,20.62,65.26Z"/><path  d="M61,54.62c0-4.85.17-9.69.53-14.54H59c.41,5.46.54,10.92.53,16.39Q60.3,55.57,61,54.62Z"/><path d="M64.77,40.08c.19,2.51.31,5,.39,7.52a33.74,33.74,0,0,0,2.29-7.52Z"/><path d="M55.27,60.52c-.1-6.81,0-13.62.5-20.44H53.19c.54,7.22.61,14.43.48,21.65Q54.48,61.14,55.27,60.52Z"/><path d="M43.83,66.55a252.92,252.92,0,0,1,.36-26.47H41.6a255.41,255.41,0,0,1,.34,27C42.58,66.9,43.21,66.74,43.83,66.55Z"/><path d="M49.56,64.23c-.2-8.05-.18-16.1.42-24.15H47.4a245.91,245.91,0,0,1,.41,25Q48.69,64.68,49.56,64.23Z"/><path d="M38.07,67.75a258.9,258.9,0,0,1,.32-27.67H35.81a259.82,259.82,0,0,1,.32,27.85C36.78,67.89,37.43,67.83,38.07,67.75Z"/></svg>