<svg xmlns="http://www.w3.org/2000/svg" viewBox="0 0 67.75 68"><defs><style>.cls-1{fill:#cc8656;}.cls-2{fill:#e09f66;}</style></defs><title>Zasób 4</title><g id="Warstwa_2" data-name="Warstwa 2"><g id="Warstwa_1-2" data-name="Warstwa 1"><path class="cls-1" d="M35.48,16.72,67.65,30A34,34,0,0,0,0,31.4L32.11,16.78A4.24,4.24,0,0,1,35.48,16.72Z"/><path class="cls-2" d="M58.77,30.09v3.46a.18.18,0,0,0,.18.18H67l.07-.36L59,29.93A.18.18,0,0,0,58.77,30.09Z"/><path class="cls-2" d="M46.69,33.72h8.9a.18.18,0,0,0,.18-.18V28.67a.18.18,0,0,0-.11-.16l-8.9-3.78a.18.18,0,0,0-.24.16v8.66A.18.18,0,0,0,46.69,33.72Z"/><path class="cls-1" d="M58.77,57.17a33.86,33.86,0,0,0,9-20.21h-7a2,2,0,0,0-2,2Z"/><path class="cls-2" d="M44.52,33.55V23.89a.18.18,0,0,0-.11-.16L35.51,20a.18.18,0,0,0-.24.16V33.55a.18.18,0,0,0,.18.18h8.9A.18.18,0,0,0,44.52,33.55Z"/><path class="cls-2" d="M32.27,33.55V20.19A.18.18,0,0,0,32,20l-8.9,4.08a.18.18,0,0,0-.1.16v9.29a.18.18,0,0,0,.18.18h8.9A.18.18,0,0,0,32.27,33.55Z"/><path class="cls-2" d="M9.39,30.39l-6.55,3a.18.18,0,0,0,.07.33H9.47a.18.18,0,0,0,.18-.18v-3A.18.18,0,0,0,9.39,30.39Z"/><path class="cls-2" d="M55.77,39.64A2.67,2.67,0,0,0,53.09,37H15.32a2.67,2.67,0,0,0-2.67,2.67v20.9A34,34,0,0,0,55.77,60Z"/><path class="cls-2" d="M21,33.55V25.34a.18.18,0,0,0-.25-.16l-8,3.68a.18.18,0,0,0-.1.16v4.54a.18.18,0,0,0,.18.18h8A.18.18,0,0,0,21,33.55Z"/><path class="cls-1" d="M9.64,57.82V38.92a2,2,0,0,0-2-2H0A33.88,33.88,0,0,0,9.64,57.82Z"/></g></g></svg>