<?xml version="1.0" standalone="no"?>
<!DOCTYPE svg PUBLIC "-//W3C//DTD SVG 20010904//EN"
 "http://www.w3.org/TR/2001/REC-SVG-20010904/DTD/svg10.dtd">
<svg version="1.0" xmlns="http://www.w3.org/2000/svg"
 width="260.000000pt" height="260.000000pt" viewBox="0 0 260.000000 260.000000"
 preserveAspectRatio="xMidYMid meet">
<metadata>
Created by potrace 1.11, written by Peter Selinger 2001-2013
</metadata>
<g transform="translate(0.000000,260.000000) scale(0.100000,-0.100000)"
fill="#000000" stroke="none">
<path d="M1158 2585 c-2 -2 -23 -6 -48 -10 -129 -18 -265 -62 -397 -129 -350
-177 -594 -499 -679 -896 -19 -90 -26 -366 -10 -445 57 -299 162 -507 354
-703 301 -309 726 -446 1147 -371 267 48 492 166 685 359 183 183 301 401 356
657 25 119 27 344 4 472 -49 271 -166 497 -355 686 -251 252 -568 383 -926
383 -70 0 -129 -1 -131 -3z"/>
</g>
</svg>
