<svg xmlns="http://www.w3.org/2000/svg" viewBox="0 0 68 67.97"><defs><style>.cls-1{fill:#cc8656;}.cls-2{fill:#e09f66;}</style></defs><title>Zasób 1</title><g id="Warstwa_2" data-name="Warstwa 2"><g id="Warstwa_1-2" data-name="Warstwa 1"><path class="cls-1" d="M17.18,15.42h1.49a1.51,1.51,0,0,1,1.51,1.51v9.28H34a1.51,1.51,0,0,1,1.51,1.51V37H49.3a1.51,1.51,0,0,1,1.51,1.51V47.8H65.07A34,34,0,0,0,5.53,15.42Z"/><path class="cls-2" d="M63.66,50.8H47.82V40H32.5V29.21H17.18V18.42H6.71a4.59,4.59,0,0,0-4.25,2.88,34,34,0,0,0,29.06,46.6c13.38.95,26.21-9.3,31.61-16.37C63.26,51.37,63.66,50.8,63.66,50.8Z"/></g></g></svg>