<svg class="service__icon" viewBox="0 0 68 68"><path d="M58.08,55a2,2,0,0,0-2-2H45.34a2,2,0,0,0-2,2v.19H58.08Z"/><path d="M43.33,66.18a33.94,33.94,0,0,0,14-8h-14Z"/><path d="M22.7,51.52H12a2,2,0,0,0-2,2v.17H24.71v-.19A2,2,0,0,0,22.7,51.52Z"/><path d="M61.08,29.85V54.55A34,34,0,1,0,7,54.6V27.85c0-.49-.12-6.33-1-9a1.51,1.51,0,0,1,1.18-2A1.45,1.45,0,0,1,8.74,18,48.45,48.45,0,0,1,10,27.21V48.52H25.72a2,2,0,0,1,2,2V67.41a34.14,34.14,0,0,0,6.15.59V43.69H21.4a2,2,0,0,1-2-2v-.6a2,2,0,0,1,.05-.44H15.83a1.5,1.5,0,0,1,0-3h39a1.5,1.5,0,0,1,0,3H51.22a2,2,0,0,1,.05.44v.6a2,2,0,0,1-2,2H36.85V67.87a34.7,34.7,0,0,0,3.48-.47V52.51a2,2,0,0,1,2-2H58.08V29.21A48.45,48.45,0,0,1,59.3,20a1.45,1.45,0,0,1,1.57-1.08,1.51,1.51,0,0,1,1.18,2C61.2,23.52,61.08,29.36,61.08,29.85Z"/><path d="M10,58A34,34,0,0,0,24.71,66.7v-10H10Z"/></svg>