<svg xmlns="http://www.w3.org/2000/svg" viewBox="0 0 68 68"><defs><style>.cls-1{fill:#e09f66;}</style></defs><title>table-ico</title><g id="Warstwa_2" data-name="Warstwa 2"><g id="Warstwa_1-2" data-name="Warstwa 1"><path class="cls-1" d="M45.6,14.89c-.46,0-.95-.08-1.46-.09v7.72h1Z"/><path class="cls-1" d="M40.94,14.81l-1.24.05v7.65h1.24Z"/><rect class="cls-1" x="37.76" y="24.53" width="7.33" height="2"/><path class="cls-1" d="M43.21,14.78H41.87v7.73h1.34Z"/><path class="cls-1" d="M38.77,14.91,37.25,15l.48,7.49h1Z"/><path class="cls-1" d="M34,0A34,34,0,1,0,68,34,34,34,0,0,0,34,0Zm6.42,56.73-.92,1L37,57.16V42.78l-12-3.62v3.08l-1.23,1.14-2.27-1.14V38.11L14.39,36V49.24L13.24,50l-2-.57-.51-14.5-.46-.14,0-1.2,30.16,8.7Zm12.45-7.06-1,1.28-2.41-.7V38.91l-7.86,4.55v-1.2l11.31-6.35ZM41,41.54,10.27,32.62l12.82-6.13L35.75,30.1V24.53H35v-2h1.82l-.47-7.42-.8.08V12.48c4.55-1.07,11.83,0,11.83,0v2.69a7.88,7.88,0,0,0-.81-.17l-.47,7.51h1.79v2h-.74v7.74h-2V27.46H37.76v3.21L52.87,35Z"/></g></g></svg>