<svg xmlns="http://www.w3.org/2000/svg" viewBox="0 0 68 68"><defs><style>.cls-1{fill:#e09f66}</style></defs><title>balustrade-ico</title><g id="Warstwa_2" data-name="Warstwa 2"><path class="cls-1" d="M34 0a34 34 0 1 0 34 34A34 34 0 0 0 34 0zM8.2 19.55h51.6v.61H8.2zm51.6 28.9H8.2v-.86h1.34V46h6v1.6h1.15V46h6v1.6h1.21V46h6v1.6h1.15V46h6v1.6h1.15V46h6v1.6h1.15V46h6v1.6h1.15V46h6v1.6h1.3zm-49.6-8.56a59.18 59.18 0 0 0 1.34-8.14h1.9a59.16 59.16 0 0 0 1.34 8.14 2 2 0 0 1-1.53 2.84h-1.59a2 2 0 0 1-1.46-2.84zm.92 3.11h2.76a5.47 5.47 0 0 0 1.27 2.67H9.89A5.19 5.19 0 0 0 11.12 43zm6.26-3.11a59.18 59.18 0 0 0 1.34-8.14h1.9A59.16 59.16 0 0 0 22 39.89a2 2 0 0 1-1.53 2.84h-1.63a2 2 0 0 1-1.46-2.84zm.93 3.11h2.76a5.47 5.47 0 0 0 1.27 2.67h-5.26A5.19 5.19 0 0 0 18.31 43zm6.26-3.11a59.2 59.2 0 0 0 1.34-8.14h1.9a59.16 59.16 0 0 0 1.34 8.14 2 2 0 0 1-1.53 2.84H26a2 2 0 0 1-1.43-2.84zm.92 3.11h2.76a5.47 5.47 0 0 0 1.27 2.67h-5.26A5.19 5.19 0 0 0 25.49 43zm6.26-3.11a59.2 59.2 0 0 0 1.34-8.14H35a59.18 59.18 0 0 0 1.34 8.14 2 2 0 0 1-1.53 2.84h-1.6a2 2 0 0 1-1.46-2.84zm.92 3.11h2.76a5.47 5.47 0 0 0 1.27 2.67h-5.25A5.19 5.19 0 0 0 32.67 43zm6.26-3.11a59.2 59.2 0 0 0 1.34-8.14h1.9a59.18 59.18 0 0 0 1.34 8.14A2 2 0 0 1 42 42.73h-1.61a2 2 0 0 1-1.45-2.84zm.93 3.11h2.76a5.47 5.47 0 0 0 1.27 2.67h-5.26A5.19 5.19 0 0 0 39.86 43zm6.26-3.11a59.2 59.2 0 0 0 1.34-8.14h1.9a59.18 59.18 0 0 0 1.34 8.14 2 2 0 0 1-1.53 2.84h-1.59a2 2 0 0 1-1.46-2.84zM47 43h2.8a5.47 5.47 0 0 0 1.27 2.67h-5.26A5.19 5.19 0 0 0 47 43zm6.26-3.11a59.18 59.18 0 0 0 1.34-8.14h1.9a59.18 59.18 0 0 0 1.34 8.14 2 2 0 0 1-1.53 2.84h-1.55a2 2 0 0 1-1.46-2.84zm.97 3.11H57a5.47 5.47 0 0 0 1.27 2.67H53A5.19 5.19 0 0 0 54.23 43zm4.2-19.53v1.28A1.35 1.35 0 0 0 57 26h-.6l.22 5.39h-2V26H54c-.05-1.07-1.38-1.13-1.38-1.13v-1.41h-1.4v1.28A1.35 1.35 0 0 0 49.8 26h-.6l.22 5.39h-2V26h-.63c-.05-1.07-1.38-1.13-1.38-1.13v-1.41h-1.4v1.28A1.35 1.35 0 0 0 42.62 26H42l.22 5.39h-2V26h-.63c-.05-1.07-1.38-1.13-1.38-1.13v-1.41h-1.4v1.28A1.35 1.35 0 0 0 35.44 26h-.6l.22 5.39h-2V26h-.63c-.05-1.07-1.38-1.13-1.38-1.13v-1.41h-1.4v1.28a1.35 1.35 0 0 0-1.4 1.26h-.6l.22 5.39h-2V26h-.63c-.05-1.07-1.38-1.13-1.38-1.13v-1.41H22.5v1.28A1.35 1.35 0 0 0 21.07 26h-.6l.22 5.39h-2V26h-.59c-.05-1.07-1.38-1.13-1.38-1.13v-1.41h-1.4v1.28A1.35 1.35 0 0 0 13.88 26h-.6l.22 5.39h-2V26h-.63c-.05-1.07-1.38-1.13-1.38-1.13v-1.41H8.2v-2.55h51.6v2.56z" id="Warstwa_1-2" data-name="Warstwa 1"/></g></svg>