<svg xmlns="http://www.w3.org/2000/svg" viewBox="0 0 68 68"><defs><style>.cls-1{fill:#e09f66}</style></defs><title>bower-ico</title><g id="Warstwa_2" data-name="Warstwa 2"><g id="Warstwa_1-2" data-name="Warstwa 1"><path class="cls-1" d="M16.47 38.54l11.39-.47v-6.71H16.47v7.18zm-2.01.08l.49-.02v-7.24h-.49v7.26zm20.32-7.26h-5.82l-.01 6.66 5.87-.24-.04-6.42zm.04 6.99l-5.87.27v3.35l5.9.4-.03-4.02zm-23.77 2.99h3.9v-2.06l-.49.02-3.41 2.04zm2.26-9.98h-2.26v8.85l2.49-1.55-.23-7.3zm-2.26 11.55l3.9-.05v-.54h-3.9v.59zm17.9.28v.66l5.91.32-.01-.64-5.9-.34z"/><path class="cls-1" d="M34 0a34 34 0 1 0 34 34A34 34 0 0 0 34 0zm29.61 29.47l-27.34.85-2.06-17.66zM33.83 12.54l1.83 17.78H5.7zm29.78 17.78l-3.61.14v19.23l-1.34.3-23 2.86-6.71-.61-1.08-.18V38.67l-11.39.54V50.6H15l-5-.26v-19H5.7v-.61h30v7h.55l16.38.65v-7.64l-16.29.62v-.61l27.31-1z"/><path class="cls-1" d="M58.62 30.51l-4.97.19-.18 7.96 5.15 1.66v-9.81zm-6.03 8.27l-16.14-.51-.79.04v4.16l22.91-1.55-5.98-2.14zm-16.93 5.56l22.96-1.84v-.53l-22.96 1.61v.76z"/></g></g></svg>