<svg xmlns="http://www.w3.org/2000/svg" viewBox="0 0 68 68"><defs><style>.cls-1{fill:#e09f66}</style></defs><title>doors-ico</title><g id="Warstwa_2" data-name="Warstwa 2"><g id="Warstwa_1-2" data-name="Warstwa 1"><path class="cls-1" d="M20.21 52.64h14V16.83h-14zM27.31 21h5.27v6.15h-5.27zm0 7h5.27v6.15h-5.27zm0 7h5.27v6.15h-5.27zm0 7h5.27v6.15h-5.27zm-5.86-21h5v6.15h-5zm0 7h5v6.15h-5zm0 7h5v6.15h-5zm0 7h5v6.15h-5zm16.43-8h-2.4a.33.33 0 0 0 0 .67h2.4a.33.33 0 1 0 0-.67z"/><path class="cls-1" d="M34 0a34 34 0 1 0 34 34A34 34 0 0 0 34 0zm20.09 56.62H13.91v-3.05h1V11.38h38.35v42.2h.82z"/><path class="cls-1" d="M15.94 53.07h3.27V15.82H49.2v37.25h3.07V12.38H15.94v40.69z"/></g></g></svg>