<svg class="fontSizePlus-ico" viewBox="0 0 30.3 12.98"><path class="fontSizePlus-path" d="M7.73 9.81H3.19l-1 3H0L4.46 0h2l4.41 12.8H8.7zM3.78 8h3.37L5.5 3h-.05z"/><path d="M18 12.8q-.11-.36-.19-.7a5 5 0 0 1-.1-.69 3.66 3.66 0 0 1-1.15 1.12A3 3 0 0 1 15 13a3.16 3.16 0 0 1-2.28-.76 2.78 2.78 0 0 1-.8-2.1A2.48 2.48 0 0 1 13 8a5.26 5.26 0 0 1 3-.8h1.66v-.84a1.55 1.55 0 0 0-.44-1.17A1.74 1.74 0 0 0 16 4.77a1.8 1.8 0 0 0-1.16.35 1.1 1.1 0 0 0-.43.9h-2.06V6a2.36 2.36 0 0 1 1-2 4.26 4.26 0 0 1 2.78-.87 4.07 4.07 0 0 1 2.68.87 3 3 0 0 1 1 2.43v4.23a7.8 7.8 0 0 0 .08 1.13 6 6 0 0 0 .25 1.06zm-2.61-1.53a2.67 2.67 0 0 0 1.45-.4 2 2 0 0 0 .86-.92V8.53H16a2.14 2.14 0 0 0-1.46.47 1.4 1.4 0 0 0-.54 1.08 1.11 1.11 0 0 0 .36.87 1.48 1.48 0 0 0 1.03.32z"/><path class="fontSizePlus-path" d="M27 5.76h3.3v2H27v3.81h-2.11V7.71h-3.36v-2h3.36V2.2H27z"/></svg>