<svg xmlns="http://www.w3.org/2000/svg" viewBox="0 0 68 68"><defs><style>.cls-1{fill:#e09f66}</style></defs><title>other-ico</title><g id="Warstwa_2" data-name="Warstwa 2"><path class="cls-1" d="M34 0a34 34 0 1 0 34 34A34 34 0 0 0 34 0zm12.11 40.23h4.08l-1.6 1.37v2.54h-1.18v-2.6zm2.48-8.64l-4.5 4.63-2.36-2.36 4.47-4.62zm-23 8L13.38 51.81a2.24 2.24 0 0 1-3.17 0l-1.55-1.55a2.24 2.24 0 0 1 0-3.17l12.22-12.23a2.23 2.23 0 0 1 2.38-.5l2.84 2.84a2 2 0 0 1-.5 2.38zm7.88-9.26a46.36 46.36 0 0 1-3.73 3.39l-2.93 2.71L24 33.61l.09-.11 6.83-7.62s2.08-3.16-.41-5.63a7.09 7.09 0 0 0-4.84-2.37s4.12-4.09 7.85-1.8 6.84 3.63 10.06 11.47l1.85 1L41 33.16l-.92-1.85s-3.26-4.15-6.6-.99zm14.67 22.3l-.67-2.44h1.11zM58 49.32H38.06a2 2 0 0 1-2-2v-.12a2 2 0 0 1 2-2H58a2 2 0 0 1 2 2v.12a2 2 0 0 1-2 2z" id="Warstwa_1-2" data-name="Warstwa 1"/></g></svg>