<svg xmlns="http://www.w3.org/2000/svg" viewBox="0 0 34 34"><defs><style>.cls-1{fill:#fff}.cls-2{fill:#333}</style></defs><title>phone-ico</title><g id="Warstwa_2" data-name="Warstwa 2"><g id="Warstwa_1-2" data-name="Warstwa 1"><circle class="cls-1" cx="17" cy="17" r="17"/><path class="cls-2" d="M28.73 23.79a1.14 1.14 0 0 1-.35 1l-3.31 3.28a1.86 1.86 0 0 1-.58.42 2.41 2.41 0 0 1-.71.22h-.47a11.46 11.46 0 0 1-1.53-.16 11.62 11.62 0 0 1-2.59-.8 21.71 21.71 0 0 1-3.47-1.9 25.87 25.87 0 0 1-4.12-3.45 27.25 27.25 0 0 1-2.88-3.28 23.39 23.39 0 0 1-1.84-2.9 15.6 15.6 0 0 1-1-2.41 12.8 12.8 0 0 1-.47-1.87 6.16 6.16 0 0 1-.1-1.23v-.5a2.42 2.42 0 0 1 .22-.71 1.86 1.86 0 0 1 .42-.58l3.29-3.31a1.1 1.1 0 0 1 .8-.35.93.93 0 0 1 .57.19 1.73 1.73 0 0 1 .42.46l2.66 5a1.21 1.21 0 0 1 .12.87 1.55 1.55 0 0 1-.42.8l-1.22 1.22a.41.41 0 0 0-.09.16.61.61 0 0 0 0 .19 4.49 4.49 0 0 0 .45 1.19 11 11 0 0 0 .92 1.45 16.15 16.15 0 0 0 1.77 2 16.47 16.47 0 0 0 2 1.78 11.49 11.49 0 0 0 1.45.93 3.87 3.87 0 0 0 .9.36l.31.06h.16a.42.42 0 0 0 .16-.09l1.42-1.44a1.52 1.52 0 0 1 1-.4 1.3 1.3 0 0 1 .67.15L28.11 23a1.25 1.25 0 0 1 .62.79z"/></g></g></svg>