<svg xmlns="http://www.w3.org/2000/svg" viewBox="0 0 68 68"><defs><style>.cls-1{fill:#e09f66}</style></defs><title>stairs-ico</title><g id="Warstwa_2" data-name="Warstwa 2"><path class="cls-1" d="M34 0a34 34 0 1 0 15.15 64.44l-8.33-10.62L34.06 56v-1.69l31-10v1.68L50 50.84l-1.67 2.63 6.19 7.63A34 34 0 0 0 34 0zM5.27 21.61l-.11-.77 4.52 1.28V23zm-.18-1.29l28.51-1.75 5.62.88-29.15 2.16zm5.66 10l-.16-.93 5.7 2.11v1.2zm-.22-1.54l9.71-1-4.14-5.21-5.67.43v-.91l28.78-2v.53L26.3 21.71l-2 3.79 1.47 1.71 15.48-1.63 5.35 1.29-30 4.06zm13.92 14.3l-6.51-3-.23-1.08 6.74 2.83zm-6.74-4.6l9.65-1.72-3.94-5-6.38.9v-1.14l29.59-4.13v1.14L33 30.45l-1.65 3.27 1.76 2 14.1-2.51 7.39 2-19.1 3.98-5.38 1.1-5.28 1.08zM33.31 56l-7.59-3.8-.3-1.48 7.89 3.59zm.38-2.25l-8.26-3.58 10.29-2.8-4.46-5.64-6.07 1.39V41.9l29.44-6v.74l-13.79 3L39.32 43l2.38 2.77 16.07-4.37 7.31 2.26z" id="Warstwa_1-2" data-name="Warstwa 1"/></g></svg>