<svg xmlns="http://www.w3.org/2000/svg" viewBox="0 0 68 68"><defs><style>.cls-1{fill:#e09f66}</style></defs><title>table-ico</title><g id="Warstwa_2" data-name="Warstwa 2"><g id="Warstwa_1-2" data-name="Warstwa 1"><path class="cls-1" d="M45.6 14.89c-.46 0-.95-.08-1.46-.09v7.72h1zm-4.66-.08l-1.24.05v7.65h1.24zm-3.18 9.72h7.33v2h-7.33zm5.45-9.75h-1.34v7.73h1.34zm-4.44.13l-1.52.09.48 7.49h1z"/><path class="cls-1" d="M34 0a34 34 0 1 0 34 34A34 34 0 0 0 34 0zm6.42 56.73l-.92 1-2.5-.57V42.78l-12-3.62v3.08l-1.23 1.14-2.27-1.14v-4.13L14.39 36v13.24l-1.15.76-2-.57-.51-14.5-.46-.14v-1.2l30.16 8.7zm12.45-7.06l-1 1.28-2.41-.7V38.91l-7.86 4.55v-1.2l11.31-6.35zM41 41.54l-30.73-8.92 12.82-6.13 12.66 3.61v-5.57H35v-2h1.82l-.47-7.42-.8.08v-2.71c4.55-1.07 11.83 0 11.83 0v2.69a7.88 7.88 0 0 0-.81-.17l-.47 7.51h1.79v2h-.74v7.74h-2v-4.79h-7.39v3.21L52.87 35z"/></g></g></svg>