<svg xmlns="http://www.w3.org/2000/svg" viewBox="0 0 34 34"><defs><style>.cls-1{fill:#fff}.cls-2{fill:#333}</style></defs><title>Zasób 16</title><g id="Warstwa_2" data-name="Warstwa 2"><g id="Warstwa_1-2" data-name="Warstwa 1"><circle class="cls-1" cx="17" cy="17" r="17"/><path class="cls-2" d="M26.79 16.64a7.69 7.69 0 0 1-1.51 4.42 4.91 4.91 0 0 1-4.19 1.86 2.52 2.52 0 0 1-1.59-.52 2.78 2.78 0 0 1-1-1.45 3.73 3.73 0 0 1-1.29 1.45 3.33 3.33 0 0 1-1.8.48 2.84 2.84 0 0 1-2.55-1.4 5.71 5.71 0 0 1-.65-3.71A9.12 9.12 0 0 1 13.95 13a4.16 4.16 0 0 1 3.38-1.8 6.48 6.48 0 0 1 2.19.31 9.51 9.51 0 0 1 1.82.94h.06l-.6 6.74a2.85 2.85 0 0 0 .16 1.53.75.75 0 0 0 .67.41 2.48 2.48 0 0 0 2.17-1.28 6.55 6.55 0 0 0 .91-3.25 9.65 9.65 0 0 0-1.61-6.48q-1.79-2.33-5.55-2.33a7.09 7.09 0 0 0-5.69 2.51 10.74 10.74 0 0 0-2.31 6.72 9.53 9.53 0 0 0 1.72 6.59 6.63 6.63 0 0 0 5.52 2.41 9.56 9.56 0 0 0 2.06-.24 9 9 0 0 0 1.83-.59l.43 1.81a6.5 6.5 0 0 1-2 .77 10.76 10.76 0 0 1-2.38.28 9 9 0 0 1-7.18-2.93q-2.52-2.93-2.32-8a12.16 12.16 0 0 1 3-8 9.55 9.55 0 0 1 7.36-3 8.65 8.65 0 0 1 7 2.85q2.41 2.73 2.2 7.67zm-11.88 1.14a4.94 4.94 0 0 0 .21 2.22 1.13 1.13 0 0 0 1.09.77 2.36 2.36 0 0 0 1.19-.31 2.63 2.63 0 0 0 1-1.13v-.08a.29.29 0 0 1 0-.08l.52-5.83a4.58 4.58 0 0 0-.54-.13 3.29 3.29 0 0 0-.56 0 2.19 2.19 0 0 0-2 1.13 8.33 8.33 0 0 0-.91 3.44z"/></g></g></svg>